<svg width="64" height="64" viewBox="0 0 24 24" fill="none" xmlns="http://www.w3.org/2000/svg">
  <rect width="24" height="24" rx="6" fill="#171717"/>
  <g fill="#FAFAFA">
    <rect x="8.297" y="1.5" width="3.879" height="3.879" rx="0.804"/>
    <rect x="12.714" y="1.5" width="3.879" height="3.879" rx="0.804"/>
    <rect x="3.879" y="5.918" width="3.879" height="3.879" rx="0.804"/>
    <rect x="12.714" y="5.918" width="3.879" height="3.879" rx="0.804"/>
    <rect x="17.132" y="5.918" width="3.879" height="3.879" rx="0.804"/>
    <rect x="0.75" y="10.336" width="3.879" height="3.879" rx="0.804"/>
    <rect x="4.629" y="10.336" width="3.879" height="3.879" rx="0.804"/>
    <rect x="9.047" y="10.336" width="3.879" height="3.879" rx="0.804"/>
    <rect x="17.882" y="10.336" width="3.879" height="3.879" rx="0.804"/>
    <rect x="0.75" y="14.753" width="3.879" height="3.879" rx="0.804"/>
    <rect x="9.047" y="14.753" width="3.879" height="3.879" rx="0.804"/>
    <rect x="13.464" y="14.753" width="3.879" height="3.879" rx="0.804"/>
    <rect x="4.629" y="19.171" width="3.879" height="3.879" rx="0.804"/>
    <rect x="9.047" y="19.171" width="3.879" height="3.879" rx="0.804"/>
  </g>
</svg>
