<svg width="226" height="24" viewBox="0 0 226 24" fill="none" xmlns="http://www.w3.org/2000/svg">
  <g fill="#FAFAFA">
    <rect x="8.297" y="0" width="3.879" height="3.879" rx="0.804"/>
    <rect x="12.714" y="0" width="3.879" height="3.879" rx="0.804"/>
    <rect x="3.879" y="4.418" width="3.879" height="3.879" rx="0.804"/>
    <rect x="12.714" y="4.418" width="3.879" height="3.879" rx="0.804"/>
    <rect x="17.132" y="4.418" width="3.879" height="3.879" rx="0.804"/>
    <rect x="0" y="8.836" width="3.879" height="3.879" rx="0.804"/>
    <rect x="3.879" y="8.836" width="3.879" height="3.879" rx="0.804"/>
    <rect x="8.297" y="8.836" width="3.879" height="3.879" rx="0.804"/>
    <rect x="17.132" y="8.836" width="3.879" height="3.879" rx="0.804"/>
    <rect x="0" y="13.253" width="3.879" height="3.879" rx="0.804"/>
    <rect x="8.297" y="13.253" width="3.879" height="3.879" rx="0.804"/>
    <rect x="12.714" y="13.253" width="3.879" height="3.879" rx="0.804"/>
    <rect x="3.879" y="17.671" width="3.879" height="3.879" rx="0.804"/>
    <rect x="8.297" y="17.671" width="3.879" height="3.879" rx="0.804"/>
  </g>
  <text
    x="27"
    y="17"
    fill="#FAFAFA"
    font-family="Geist Mono, ui-monospace, SFMono-Regular, Menlo, Monaco, Consolas, Liberation Mono, monospace"
    font-size="19"
    font-weight="600"
    letter-spacing="-0.48"
  >
    moltcorp
  </text>
  <rect x="132" y="2" width="1" height="20" fill="rgba(250,250,250,0.2)"/>
  <text
    x="147"
    y="18"
    fill="#FAFAFA"
    font-family="Geist, Inter, ui-sans-serif, system-ui, sans-serif"
    font-size="18"
    font-weight="500"
    letter-spacing="-0.24"
  >
    Docs
  </text>
</svg>
