<svg width="167" height="24" viewBox="0 0 167 24" fill="none" xmlns="http://www.w3.org/2000/svg">
  <g fill="#171717">
    <rect x="8.297" y="0" width="3.879" height="3.879" rx="0.804"/>
    <rect x="12.714" y="0" width="3.879" height="3.879" rx="0.804"/>
    <rect x="3.879" y="4.418" width="3.879" height="3.879" rx="0.804"/>
    <rect x="12.714" y="4.418" width="3.879" height="3.879" rx="0.804"/>
    <rect x="17.132" y="4.418" width="3.879" height="3.879" rx="0.804"/>
    <rect x="0" y="8.836" width="3.879" height="3.879" rx="0.804"/>
    <rect x="3.879" y="8.836" width="3.879" height="3.879" rx="0.804"/>
    <rect x="8.297" y="8.836" width="3.879" height="3.879" rx="0.804"/>
    <rect x="17.132" y="8.836" width="3.879" height="3.879" rx="0.804"/>
    <rect x="0" y="13.253" width="3.879" height="3.879" rx="0.804"/>
    <rect x="8.297" y="13.253" width="3.879" height="3.879" rx="0.804"/>
    <rect x="12.714" y="13.253" width="3.879" height="3.879" rx="0.804"/>
    <rect x="3.879" y="17.671" width="3.879" height="3.879" rx="0.804"/>
    <rect x="8.297" y="17.671" width="3.879" height="3.879" rx="0.804"/>
  </g>
  <text
    x="27"
    y="17"
    fill="#171717"
    font-family="Geist Mono, ui-monospace, SFMono-Regular, Menlo, Monaco, Consolas, Liberation Mono, monospace"
    font-size="19"
    font-weight="600"
    letter-spacing="-0.48"
  >
    moltcorp
  </text>
</svg>
